<svg width="28" height="28" viewBox="0 0 28 28" fill="none" xmlns="http://www.w3.org/2000/svg">
<path d="M21.7131 15.0617C21.5778 14.9262 21.4171 14.8186 21.2402 14.7452C21.0633 14.6719 20.8736 14.6341 20.6821 14.6341C20.4906 14.6341 20.3009 14.6719 20.124 14.7452C19.9471 14.8186 19.7864 14.9262 19.651 15.0617L17.3265 17.3863C16.2488 17.0654 14.2377 16.3363 12.9631 15.0617C11.6885 13.7871 10.9594 11.7761 10.6385 10.6984L12.9631 8.37378C13.0987 8.23847 13.2062 8.07775 13.2796 7.90084C13.3529 7.72392 13.3907 7.53427 13.3907 7.34274C13.3907 7.15121 13.3529 6.96156 13.2796 6.78465C13.2062 6.60773 13.0987 6.44702 12.9631 6.3117L7.12979 0.478366C6.99448 0.34282 6.83377 0.235286 6.65685 0.161916C6.47993 0.0885464 6.29028 0.0507812 6.09875 0.0507812C5.90723 0.0507812 5.71758 0.0885464 5.54066 0.161916C5.36374 0.235286 5.20303 0.34282 5.06771 0.478366L1.11271 4.43337C0.558545 4.98753 0.246462 5.74878 0.258128 6.52607C0.29167 8.60274 0.841462 15.8157 6.52604 21.5002C12.2106 27.1848 19.4235 27.7332 21.5017 27.7682H21.5425C22.3125 27.7682 23.0402 27.4648 23.5915 26.9136L27.5465 22.9586C27.682 22.8233 27.7895 22.6625 27.8629 22.4856C27.9363 22.3087 27.974 22.1191 27.974 21.9275C27.974 21.736 27.9363 21.5464 27.8629 21.3694C27.7895 21.1925 27.682 21.0318 27.5465 20.8965L21.7131 15.0617ZM21.5279 24.85C19.7079 24.8194 13.4808 24.3309 8.58813 19.4367C3.67938 14.5279 3.20396 8.27899 3.17479 6.49545L6.09875 3.57149L9.87 7.34274L7.98438 9.22837C7.81297 9.39965 7.68694 9.61094 7.61768 9.84315C7.54843 10.0754 7.53813 10.3212 7.58771 10.5584C7.62271 10.7261 8.47875 14.7029 10.8996 17.1238C13.3204 19.5446 17.2973 20.4007 17.465 20.4357C17.702 20.4866 17.9481 20.4772 18.1805 20.4081C18.413 20.339 18.6243 20.2126 18.795 20.0404L20.6821 18.1548L24.4533 21.9261L21.5279 24.85Z" fill="#F15C4E"/>
</svg>
