<svg width="30" height="27" viewBox="0 0 30 27" fill="none" xmlns="http://www.w3.org/2000/svg">
<path d="M27.6176 3.59581H24.0621V6.26247C24.0621 6.51928 24.0115 6.77357 23.9132 7.01083C23.8149 7.24809 23.6709 7.46367 23.4893 7.64526C23.3077 7.82685 23.0921 7.97089 22.8549 8.06917C22.6176 8.16745 22.3633 8.21803 22.1065 8.21803C21.8497 8.21803 21.5954 8.16745 21.3582 8.06917C21.1209 7.97089 20.9053 7.82685 20.7237 7.64526C20.5421 7.46367 20.3981 7.24809 20.2998 7.01083C20.2015 6.77357 20.151 6.51928 20.151 6.26247V3.59581H9.79541V6.26247C9.79541 6.78112 9.58938 7.27852 9.22264 7.64526C8.8559 8.012 8.3585 8.21803 7.83986 8.21803C7.32121 8.21803 6.82381 8.012 6.45707 7.64526C6.09033 7.27852 5.8843 6.78112 5.8843 6.26247V3.59581H2.32874C2.11721 3.5934 1.90734 3.63344 1.71155 3.71355C1.51576 3.79366 1.33802 3.91223 1.18884 4.06223C1.03967 4.21223 0.922095 4.39062 0.843067 4.58686C0.764039 4.78309 0.725165 4.99318 0.728744 5.20469V25.098C0.725213 25.3058 0.76265 25.5123 0.838918 25.7056C0.915186 25.8989 1.02879 26.0753 1.17324 26.2247C1.3177 26.3741 1.49017 26.4936 1.6808 26.5763C1.87144 26.6591 2.07651 26.7034 2.2843 26.7069H27.6176C27.8254 26.7034 28.0305 26.6591 28.2211 26.5763C28.4118 26.4936 28.5842 26.3741 28.7287 26.2247C28.8731 26.0753 28.9867 25.8989 29.063 25.7056C29.1393 25.5123 29.1767 25.3058 29.1732 25.098V5.20469C29.1767 4.99691 29.1393 4.79046 29.063 4.59714C28.9867 4.40382 28.8731 4.22742 28.7287 4.07802C28.5842 3.92861 28.4118 3.80913 28.2211 3.72639C28.0305 3.64365 27.8254 3.59928 27.6176 3.59581ZM7.83986 21.3736H6.06208V19.5958H7.83986V21.3736ZM7.83986 16.9291H6.06208V15.1514H7.83986V16.9291ZM7.83986 12.4847H6.06208V10.7069H7.83986V12.4847ZM13.1732 21.3736H11.3954V19.5958H13.1732V21.3736ZM13.1732 16.9291H11.3954V15.1514H13.1732V16.9291ZM13.1732 12.4847H11.3954V10.7069H13.1732V12.4847ZM18.5065 21.3736H16.7287V19.5958H18.5065V21.3736ZM18.5065 16.9291H16.7287V15.1514H18.5065V16.9291ZM18.5065 12.4847H16.7287V10.7069H18.5065V12.4847ZM23.8399 21.3736H22.0621V19.5958H23.8399V21.3736ZM23.8399 16.9291H22.0621V15.1514H23.8399V16.9291ZM23.8399 12.4847H22.0621V10.7069H23.8399V12.4847Z" fill="#036E80"/>
<path d="M7.84006 7.15017C8.07581 7.15017 8.3019 7.05652 8.4686 6.88982C8.6353 6.72313 8.72895 6.49703 8.72895 6.26129V0.927951C8.72895 0.692203 8.6353 0.466111 8.4686 0.299412C8.3019 0.132713 8.07581 0.0390625 7.84006 0.0390625C7.60431 0.0390625 7.37822 0.132713 7.21152 0.299412C7.04482 0.466111 6.95117 0.692203 6.95117 0.927951V6.26129C6.95117 6.49703 7.04482 6.72313 7.21152 6.88982C7.37822 7.05652 7.60431 7.15017 7.84006 7.15017Z" fill="#036E80"/>
<path d="M22.0627 7.15017C22.2985 7.15017 22.5246 7.05652 22.6913 6.88982C22.858 6.72313 22.9516 6.49703 22.9516 6.26129V0.927951C22.9516 0.692203 22.858 0.466111 22.6913 0.299412C22.5246 0.132713 22.2985 0.0390625 22.0627 0.0390625C21.827 0.0390625 21.6009 0.132713 21.4342 0.299412C21.2675 0.466111 21.1738 0.692203 21.1738 0.927951V6.26129C21.1738 6.49703 21.2675 6.72313 21.4342 6.88982C21.6009 7.05652 21.827 7.15017 22.0627 7.15017Z" fill="#036E80"/>
</svg>
