<svg width="62" height="63" viewBox="0 0 62 63" fill="none" xmlns="http://www.w3.org/2000/svg">
<path d="M31 4.57031C16.0207 4.57031 3.875 16.716 3.875 31.6953C3.875 46.6746 16.0207 58.8203 31 58.8203C45.9793 58.8203 58.125 46.6746 58.125 31.6953C58.125 16.716 45.9793 4.57031 31 4.57031ZM41.0145 42.0004L37.0184 41.9822L31 34.8074L24.9877 41.9762L20.9855 41.9943C20.7191 41.9943 20.5012 41.7824 20.5012 41.51C20.5012 41.3949 20.5436 41.2859 20.6162 41.1951L28.4934 31.8104L20.6162 22.4316C20.543 22.3429 20.5025 22.2318 20.5012 22.1168C20.5012 21.8504 20.7191 21.6324 20.9855 21.6324L24.9877 21.6506L31 28.8254L37.0123 21.6566L41.0084 21.6385C41.2748 21.6385 41.4928 21.8504 41.4928 22.1229C41.4928 22.2379 41.4504 22.3469 41.3777 22.4377L33.5127 31.8164L41.3838 41.2012C41.4564 41.292 41.4988 41.401 41.4988 41.516C41.4988 41.7824 41.2809 42.0004 41.0145 42.0004Z" fill="black"/>
</svg>
