<svg width="94" height="87" viewBox="0 0 94 87" fill="none" xmlns="http://www.w3.org/2000/svg">
<path d="M62.9378 54.4041C65.3352 51.2792 66.6243 47.5316 66.6243 43.6875C66.6243 39.8434 65.3352 36.0958 62.9378 32.9709L69.9305 26.4409L74.2054 30.433C74.8254 31.0118 75.6662 31.337 76.5429 31.337C77.4196 31.337 78.2604 31.0118 78.8804 30.433L92.1052 18.0831C92.725 17.5041 93.0732 16.7189 93.0732 15.9003C93.0732 15.0816 92.725 14.2964 92.1052 13.7174L78.8804 1.36752C78.2604 0.788708 77.4196 0.46355 76.5429 0.46355C75.6662 0.46355 74.8254 0.788708 74.2054 1.36752L60.9805 13.7174C60.3607 14.2964 60.0125 15.0816 60.0125 15.9003C60.0125 16.7189 60.3607 17.5041 60.9805 18.0831L65.2555 22.0752L58.2628 28.6052C54.9165 26.3665 50.9034 25.1626 46.787 25.1626C42.6705 25.1626 38.6574 26.3665 35.3111 28.6052L26.9497 20.7939V0.462891H0.5V25.1627H22.2747L30.6361 32.9709C28.2388 36.0958 26.9496 39.8434 26.9496 43.6875C26.9496 47.5316 28.2388 51.2792 30.6361 54.4041L23.6435 60.9341L19.3686 56.942C18.7485 56.3632 17.9077 56.0381 17.0311 56.0381C16.1544 56.0381 15.3136 56.3632 14.6936 56.942L1.46872 69.2919C0.848901 69.8709 0.500706 70.6561 0.500706 71.4748C0.500706 72.2934 0.848901 73.0786 1.46872 73.6576L14.6936 86.0075C15.3136 86.5863 16.1544 86.9115 17.0311 86.9115C17.9077 86.9115 18.7485 86.5863 19.3686 86.0075L32.5934 73.6576C33.2132 73.0786 33.5614 72.2934 33.5614 71.4748C33.5614 70.6561 33.2132 69.8709 32.5934 69.2919L28.3185 65.2998L35.3111 58.7698C38.6574 61.0085 42.6705 62.2124 46.787 62.2124C50.9034 62.2124 54.9165 61.0085 58.2628 58.7698L66.6242 66.5811V86.9121H93.0739V62.2123H71.2992L62.9378 54.4041ZM76.5429 7.91605L85.0927 15.9003L76.5429 23.8845L67.993 15.9003L76.5429 7.91605ZM17.0311 79.459L8.4812 71.4748L17.0311 63.4905L25.5809 71.4748L17.0311 79.459ZM20.3373 18.9877H7.11242V6.63784H20.3373V18.9877ZM33.5621 43.6875C33.5621 41.2449 34.3377 38.8572 35.7909 36.8263C37.2441 34.7953 39.3095 33.2124 41.726 32.2777C44.1426 31.343 46.8016 31.0984 49.367 31.5749C51.9324 32.0514 54.2888 33.2276 56.1383 34.9548C57.9879 36.682 59.2474 38.8825 59.7577 41.2782C60.268 43.6738 60.0061 46.157 59.0051 48.4136C58.0042 50.6702 56.3091 52.599 54.1343 53.9561C51.9595 55.3131 49.4026 56.0374 46.787 56.0374C43.2809 56.0333 39.9196 54.7308 37.4404 52.4157C34.9612 50.1005 33.5665 46.9616 33.5621 43.6875ZM73.2367 68.3873H86.4615V80.7372H73.2367V68.3873Z" fill="white"/>
</svg>
