<svg width="53" height="52" viewBox="0 0 53 52" fill="none" xmlns="http://www.w3.org/2000/svg">
<path d="M26.5 0.625C12.2455 0.625 0.6875 11.9871 0.6875 26C0.6875 40.0129 12.2455 51.375 26.5 51.375C40.7545 51.375 52.3125 40.0129 52.3125 26C52.3125 11.9871 40.7545 0.625 26.5 0.625ZM36.0299 35.6402L32.2271 35.6232L26.5 28.9113L20.7786 35.6176L16.9701 35.6346C16.7166 35.6346 16.5092 35.4363 16.5092 35.1814C16.5092 35.0738 16.5495 34.9719 16.6187 34.8869L24.1146 26.1076L16.6187 17.334C16.549 17.251 16.5104 17.147 16.5092 17.0395C16.5092 16.7902 16.7166 16.5863 16.9701 16.5863L20.7786 16.6033L26.5 23.3152L32.2214 16.609L36.0241 16.592C36.2776 16.592 36.4851 16.7902 36.4851 17.0451C36.4851 17.1527 36.4447 17.2547 36.3756 17.3396L28.8911 26.1133L36.3813 34.8926C36.4505 34.9775 36.4908 35.0795 36.4908 35.1871C36.4908 35.4363 36.2834 35.6402 36.0299 35.6402Z" fill="black"/>
</svg>
