<svg width="64" height="64" viewBox="0 0 64 64" fill="none" xmlns="http://www.w3.org/2000/svg">
<circle cx="32.3775" cy="32.0142" r="31.6002" fill="#F15D4F"/>
<path d="M43.3151 47.3262H41.1276V44.0449C41.1258 42.5951 40.5491 41.2051 39.5239 40.1798C38.4987 39.1546 37.1087 38.5779 35.6588 38.5762H29.0963C27.6464 38.5779 26.2565 39.1546 25.2312 40.1798C24.206 41.2051 23.6293 42.5951 23.6276 44.0449V47.3262H21.4401V44.0449C21.4424 42.0151 22.2498 40.069 23.6851 38.6337C25.1204 37.1984 27.0665 36.391 29.0963 36.3887H35.6588C37.6887 36.391 39.6347 37.1984 41.07 38.6337C42.5054 40.069 43.3127 42.0151 43.3151 44.0449V47.3262ZM20.3463 21.0762C20.0562 21.0762 19.778 21.1914 19.5729 21.3965C19.3678 21.6016 19.2526 21.8798 19.2526 22.1699V32.0137H21.4401V22.1699C21.4401 21.8798 21.3248 21.6016 21.1197 21.3965C20.9146 21.1914 20.6364 21.0762 20.3463 21.0762Z" fill="white"/>
<path d="M19.2526 16.7012V18.8887H24.7213V26.5449C24.7213 28.5755 25.528 30.5229 26.9638 31.9587C28.3996 33.3945 30.347 34.2012 32.3776 34.2012C34.4081 34.2012 36.3555 33.3945 37.7913 31.9587C39.2272 30.5229 40.0338 28.5755 40.0338 26.5449V18.8887H45.5026V16.7012H19.2526ZM26.9088 18.8887H37.8463V22.1699H26.9088V18.8887ZM32.3776 32.0137C30.9272 32.0137 29.5362 31.4375 28.5106 30.4119C27.485 29.3863 26.9088 27.9953 26.9088 26.5449V24.3574H37.8463V26.5449C37.8463 27.9953 37.2701 29.3863 36.2446 30.4119C35.219 31.4375 33.828 32.0137 32.3776 32.0137Z" fill="white"/>
</svg>
