<svg width="91" height="91" viewBox="0 0 91 91" fill="none" xmlns="http://www.w3.org/2000/svg">
<path d="M91 6.7766V20.3298C91 21.1 90.694 21.8388 90.1494 22.3834C89.6047 22.9281 88.866 23.234 88.0957 23.234C87.3255 23.234 86.5868 22.9281 86.0421 22.3834C85.4975 21.8388 85.1915 21.1 85.1915 20.3298V6.7766C85.1915 6.51984 85.0895 6.27361 84.9079 6.09206C84.7264 5.9105 84.4802 5.80851 84.2234 5.80851H70.6702C69.9 5.80851 69.1612 5.50253 68.6166 4.95787C68.0719 4.41322 67.766 3.67451 67.766 2.90426C67.766 2.134 68.0719 1.39529 68.6166 0.850636C69.1612 0.305983 69.9 0 70.6702 0H84.2234C86.0207 0 87.7443 0.713961 89.0152 1.98482C90.286 3.25568 91 4.97933 91 6.7766ZM88.0957 67.766C87.3255 67.766 86.5868 68.0719 86.0421 68.6166C85.4975 69.1612 85.1915 69.9 85.1915 70.6702V84.2234C85.1915 84.4802 85.0895 84.7264 84.9079 84.9079C84.7264 85.0895 84.4802 85.1915 84.2234 85.1915H70.6702C69.9 85.1915 69.1612 85.4975 68.6166 86.0421C68.0719 86.5868 67.766 87.3255 67.766 88.0957C67.766 88.866 68.0719 89.6047 68.6166 90.1494C69.1612 90.694 69.9 91 70.6702 91H84.2234C86.0207 91 87.7443 90.286 89.0152 89.0152C90.286 87.7443 91 86.0207 91 84.2234V70.6702C91 69.9 90.694 69.1612 90.1494 68.6166C89.6047 68.0719 88.866 67.766 88.0957 67.766ZM20.3298 85.1915H6.7766C6.51984 85.1915 6.27361 85.0895 6.09206 84.9079C5.9105 84.7264 5.80851 84.4802 5.80851 84.2234V70.6702C5.80851 69.9 5.50253 69.1612 4.95787 68.6166C4.41322 68.0719 3.67451 67.766 2.90426 67.766C2.134 67.766 1.39529 68.0719 0.850636 68.6166C0.305983 69.1612 0 69.9 0 70.6702V84.2234C0 86.0207 0.713961 87.7443 1.98482 89.0152C3.25568 90.286 4.97933 91 6.7766 91H20.3298C21.1 91 21.8388 90.694 22.3834 90.1494C22.9281 89.6047 23.234 88.866 23.234 88.0957C23.234 87.3255 22.9281 86.5868 22.3834 86.0421C21.8388 85.4975 21.1 85.1915 20.3298 85.1915ZM2.90426 23.234C3.67451 23.234 4.41322 22.9281 4.95787 22.3834C5.50253 21.8388 5.80851 21.1 5.80851 20.3298V6.7766C5.80851 6.51984 5.9105 6.27361 6.09206 6.09206C6.27361 5.9105 6.51984 5.80851 6.7766 5.80851H20.3298C21.1 5.80851 21.8388 5.50253 22.3834 4.95787C22.9281 4.41322 23.234 3.67451 23.234 2.90426C23.234 2.134 22.9281 1.39529 22.3834 0.850636C21.8388 0.305983 21.1 0 20.3298 0H6.7766C4.97933 0 3.25568 0.713961 1.98482 1.98482C0.713961 3.25568 0 4.97933 0 6.7766V20.3298C0 21.1 0.305983 21.8388 0.850636 22.3834C1.39529 22.9281 2.134 23.234 2.90426 23.234ZM68.6372 70.0894C66.4091 65.8859 63.0779 62.3688 59.0015 59.9159C54.9251 57.463 50.2575 56.1669 45.5 56.1669C40.7425 56.1669 36.0749 57.463 31.9985 59.9159C27.9221 62.3688 24.5909 65.8859 22.3628 70.0894C22.0028 70.7692 21.3877 71.2784 20.6527 71.5053C19.9176 71.7322 19.1226 71.6582 18.442 71.2995C17.7714 70.9303 17.2704 70.3151 17.0446 69.5836C16.8189 68.8522 16.886 68.0616 17.2319 67.3787C20.8834 60.442 26.9683 55.0983 34.3186 52.3734C31.2657 50.0361 29.0219 46.8008 27.9028 43.1223C26.7836 39.4439 26.8454 35.5072 28.0793 31.8656C29.3132 28.2241 31.6573 25.0607 34.782 22.8203C37.9068 20.5798 41.6551 19.3749 45.5 19.3749C49.3449 19.3749 53.0932 20.5798 56.2179 22.8203C59.3427 25.0607 61.6868 28.2241 62.9207 31.8656C64.1546 35.5072 64.2164 39.4439 63.0972 43.1223C61.9781 46.8008 59.7343 50.0361 56.6814 52.3734C64.0317 55.0983 70.1166 60.442 73.7681 67.3787C74.114 68.0616 74.1811 68.8522 73.9554 69.5836C73.7296 70.3151 73.2286 70.9303 72.558 71.2995C72.142 71.5248 71.6758 71.6414 71.2027 71.6383C70.6746 71.6377 70.1568 71.4932 69.7047 71.2203C69.2527 70.9473 68.8836 70.5564 68.6372 70.0894ZM45.5 50.3404C47.9891 50.3404 50.4223 49.6023 52.4919 48.2195C54.5615 46.8366 56.1746 44.8711 57.1271 42.5714C58.0797 40.2718 58.3289 37.7414 57.8433 35.3001C57.3577 32.8588 56.1591 30.6164 54.399 28.8563C52.639 27.0962 50.3965 25.8976 47.9552 25.412C45.514 24.9264 42.9835 25.1757 40.6839 26.1282C38.3843 27.0807 36.4187 28.6938 35.0359 30.7634C33.653 32.833 32.9149 35.2662 32.9149 37.7553C32.9276 41.0892 34.2577 44.2828 36.6151 46.6403C38.9725 48.9977 42.1661 50.3277 45.5 50.3404Z" fill="white"/>
</svg>
