<svg width="18" height="18" viewBox="0 0 18 18" fill="none" xmlns="http://www.w3.org/2000/svg">
<mask id="mask0_95_1618" style="mask-type:alpha" maskUnits="userSpaceOnUse" x="0" y="0" width="18" height="18">
<g clip-path="url(#clip0_95_1618)">
<path d="M10.7988 9.24609C10.7988 10.0712 10.1298 10.7402 9.30469 10.7402C8.47954 10.7402 7.81055 10.0712 7.81055 9.24609C7.81055 8.42094 8.47954 7.75195 9.30469 7.75195C10.1298 7.75195 10.7988 8.42094 10.7988 9.24609Z" fill="black"/>
<path d="M11.8281 4.73047H6.78125C5.68269 4.73047 4.78906 5.6241 4.78906 6.72266V11.7695C4.78906 12.8681 5.68269 13.7617 6.78125 13.7617H11.8281C12.9267 13.7617 13.8203 12.8681 13.8203 11.7695V6.72266C13.8203 5.6241 12.9267 4.73047 11.8281 4.73047ZM9.30469 11.7363C7.93156 11.7363 6.81445 10.6192 6.81445 9.24609C6.81445 7.87296 7.93156 6.75586 9.30469 6.75586C10.6778 6.75586 11.7949 7.87296 11.7949 9.24609C11.7949 10.6192 10.6778 11.7363 9.30469 11.7363ZM12.1602 6.88867C11.8851 6.88867 11.6621 6.66572 11.6621 6.39062C11.6621 6.11553 11.8851 5.89258 12.1602 5.89258C12.4352 5.89258 12.6582 6.11553 12.6582 6.39062C12.6582 6.66572 12.4352 6.88867 12.1602 6.88867Z" fill="black"/>
<path d="M13.3223 0.746094H5.28711C2.81555 0.746094 0.804688 2.75696 0.804688 5.22852V13.2637C0.804688 15.7352 2.81555 17.7461 5.28711 17.7461H13.3223C15.7938 17.7461 17.8047 15.7352 17.8047 13.2637V5.22852C17.8047 2.75696 15.7938 0.746094 13.3223 0.746094ZM14.8164 11.7695C14.8164 13.4172 13.4758 14.7578 11.8281 14.7578H6.78125C5.13354 14.7578 3.79297 13.4172 3.79297 11.7695V6.72266C3.79297 5.07495 5.13354 3.73438 6.78125 3.73438H11.8281C13.4758 3.73438 14.8164 5.07495 14.8164 6.72266V11.7695Z" fill="black"/>
</g>
</mask>
<g mask="url(#mask0_95_1618)">
<rect x="-1.19531" y="-1.25391" width="20" height="20" fill="white"/>
</g>
<defs>
<clipPath id="clip0_95_1618">
<rect width="17" height="17" fill="white" transform="translate(0.804688 0.746094)"/>
</clipPath>
</defs>
</svg>
