<svg width="17" height="15" viewBox="0 0 17 15" fill="none" xmlns="http://www.w3.org/2000/svg">
<path fill-rule="evenodd" clip-rule="evenodd" d="M0.985884 7.99931C0.985884 8.26453 1.09124 8.51888 1.27878 8.70642C1.46631 8.89395 1.72067 8.99931 1.98588 8.99931H13.5719L9.27788 13.2913C9.18491 13.3843 9.11115 13.4947 9.06084 13.6161C9.01052 13.7376 8.98462 13.8678 8.98462 13.9993C8.98462 14.1308 9.01052 14.261 9.06084 14.3825C9.11115 14.504 9.18491 14.6143 9.27788 14.7073C9.37086 14.8003 9.48124 14.874 9.60272 14.9244C9.7242 14.9747 9.8544 15.0006 9.98588 15.0006C10.1174 15.0006 10.2476 14.9747 10.3691 14.9244C10.4905 14.874 10.6009 14.8003 10.6939 14.7073L16.6939 8.70731C16.787 8.61442 16.8609 8.50407 16.9113 8.38258C16.9617 8.26109 16.9877 8.13085 16.9877 7.99931C16.9877 7.86778 16.9617 7.73753 16.9113 7.61604C16.8609 7.49455 16.787 7.3842 16.6939 7.29131L10.6939 1.29131C10.5061 1.10354 10.2514 0.998047 9.98588 0.998047C9.72033 0.998047 9.46566 1.10354 9.27788 1.29131C9.09011 1.47908 8.98462 1.73376 8.98462 1.99931C8.98462 2.26486 9.09011 2.51954 9.27788 2.70731L13.5719 6.99931H1.98588C1.72067 6.99931 1.46631 7.10467 1.27878 7.2922C1.09124 7.47974 0.985884 7.73409 0.985884 7.99931Z" fill="white"/>
</svg>
