<svg width="20" height="21" viewBox="0 0 20 21" fill="none" xmlns="http://www.w3.org/2000/svg">
<path fill-rule="evenodd" clip-rule="evenodd" d="M7.429 7.05298H11.143V8.90298C11.678 7.83898 13.05 6.88298 15.111 6.88298C19.062 6.88298 20 9.00099 20 12.887V20.084H16V13.772C16 11.559 15.465 10.311 14.103 10.311C12.214 10.311 11.429 11.656 11.429 13.771V20.084H7.429V7.05298ZM0.57 19.914H4.57V6.88298H0.57V19.914ZM5.143 2.63398C5.14315 2.96926 5.07666 3.30122 4.94739 3.61057C4.81812 3.91992 4.62865 4.2005 4.39 4.43599C3.9064 4.91661 3.25181 5.18564 2.57 5.18398C1.88939 5.18353 1.23631 4.91518 0.752 4.43699C0.514211 4.2007 0.325386 3.91981 0.196344 3.61042C0.0673015 3.30102 0.000579132 2.96921 0 2.63398C0 1.95698 0.27 1.30898 0.753 0.830985C1.23689 0.352143 1.89024 0.0836852 2.571 0.0839846C3.253 0.0839846 3.907 0.352985 4.39 0.830985C4.872 1.30898 5.143 1.95698 5.143 2.63398Z" fill="#9B9A9A"/>
</svg>
