<svg width="23" height="29" viewBox="0 0 23 29" fill="none" xmlns="http://www.w3.org/2000/svg">
<path d="M11.5488 0.150391C8.63251 0.153831 5.83662 1.31386 3.77446 3.37602C1.71231 5.43817 0.55228 8.23407 0.54884 11.1504C0.545347 13.5336 1.32382 15.8522 2.76484 17.7504C2.76484 17.7504 3.06484 18.1454 3.11384 18.2024L11.5488 28.1504L19.9878 18.1974C20.0318 18.1444 20.3328 17.7504 20.3328 17.7504L20.3338 17.7474C21.7741 15.85 22.5523 13.5325 22.5488 11.1504C22.5454 8.23407 21.3854 5.43817 19.3232 3.37602C17.2611 1.31386 14.4652 0.153831 11.5488 0.150391ZM11.5488 15.1504C10.7577 15.1504 9.98436 14.9158 9.32656 14.4763C8.66876 14.0367 8.15607 13.412 7.85332 12.6811C7.55057 11.9502 7.47136 11.146 7.6257 10.37C7.78004 9.59411 8.161 8.88137 8.72041 8.32196C9.27982 7.76255 9.99255 7.38159 10.7685 7.22725C11.5444 7.07291 12.3487 7.15212 13.0796 7.45487C13.8105 7.75762 14.4352 8.27031 14.8747 8.92811C15.3142 9.58591 15.5488 10.3593 15.5488 11.1504C15.5475 12.2109 15.1257 13.2275 14.3758 13.9774C13.6259 14.7272 12.6093 15.1491 11.5488 15.1504Z" fill="#036E80"/>
</svg>
