<svg width="22" height="28" viewBox="0 0 22 28" fill="none" xmlns="http://www.w3.org/2000/svg">
<path d="M10.8919 27.0989C9.04996 25.5277 7.34263 23.8052 5.78776 21.9495C3.45443 19.1626 0.683595 15.0122 0.683595 11.0572C0.682583 9.03735 1.28079 7.0626 2.40252 5.38286C3.52425 3.70313 5.11907 2.39391 6.98515 1.62091C8.85123 0.847901 10.9047 0.645854 12.8856 1.04034C14.8666 1.43482 16.686 2.40809 18.1136 3.83699C19.0641 4.78325 19.8174 5.90861 20.3301 7.14796C20.8428 8.3873 21.1045 9.71602 21.1003 11.0572C21.1003 15.0122 18.3294 19.1626 15.9961 21.9495C14.4412 23.8052 12.7339 25.5277 10.8919 27.0989ZM10.8919 6.6822C9.73161 6.6822 8.61881 7.14314 7.79834 7.96361C6.97786 8.78408 6.51693 9.89688 6.51693 11.0572C6.51693 12.2175 6.97786 13.3303 7.79834 14.1508C8.61881 14.9713 9.73161 15.4322 10.8919 15.4322C12.0523 15.4322 13.165 14.9713 13.9855 14.1508C14.806 13.3303 15.2669 12.2175 15.2669 11.0572C15.2669 9.89688 14.806 8.78408 13.9855 7.96361C13.165 7.14314 12.0523 6.6822 10.8919 6.6822Z" fill="#F15C4E"/>
</svg>
