<svg width="102" height="102" viewBox="0 0 102 102" fill="none" xmlns="http://www.w3.org/2000/svg">
<path d="M68.4581 63.3324C71.0866 59.6634 72.5001 55.2634 72.5001 50.75C72.5001 46.2366 71.0866 41.8366 68.4581 38.1676L76.125 30.5007L80.8121 35.1879C81.4919 35.8675 82.4138 36.2492 83.375 36.2492C84.3362 36.2492 85.2581 35.8675 85.9379 35.1879L100.438 20.6879C101.117 20.0081 101.499 19.0862 101.499 18.125C101.499 17.1638 101.117 16.2419 100.438 15.5621L85.9379 1.06212C85.2581 0.382542 84.3362 0.000774384 83.375 0.000774384C82.4138 0.000774384 81.4919 0.382542 80.8121 1.06212L66.3121 15.5621C65.6325 16.2419 65.2508 17.1638 65.2508 18.125C65.2508 19.0862 65.6325 20.0081 66.3121 20.6879L70.9993 25.375L63.3324 33.0419C59.6634 30.4134 55.2634 28.9999 50.75 28.9999C46.2366 28.9999 41.8366 30.4134 38.1676 33.0419L29 23.8706V0H0V29H23.8743L33.0419 38.1676C30.4134 41.8366 28.9999 46.2366 28.9999 50.75C28.9999 55.2634 30.4134 59.6634 33.0419 63.3324L25.375 70.9993L20.6879 66.3121C20.0081 65.6325 19.0862 65.2508 18.125 65.2508C17.1638 65.2508 16.2419 65.6325 15.5621 66.3121L1.06212 80.8121C0.382542 81.4919 0.000774384 82.4138 0.000774384 83.375C0.000774384 84.3362 0.382542 85.2581 1.06212 85.9379L15.5621 100.438C16.2419 101.117 17.1638 101.499 18.125 101.499C19.0862 101.499 20.0081 101.117 20.6879 100.438L35.1879 85.9379C35.8675 85.2581 36.2492 84.3362 36.2492 83.375C36.2492 82.4138 35.8675 81.4919 35.1879 80.8121L30.5007 76.125L38.1676 68.4581C41.8366 71.0866 46.2366 72.5001 50.75 72.5001C55.2634 72.5001 59.6634 71.0866 63.3324 68.4581L72.5 77.6294V101.5H101.5V72.5H77.6257L68.4581 63.3324ZM83.375 8.75075L92.7493 18.125L83.375 27.4993L74.0007 18.125L83.375 8.75075ZM18.125 92.7493L8.75075 83.375L18.125 74.0007L27.4993 83.375L18.125 92.7493ZM21.75 21.75H7.25V7.25H21.75V21.75ZM36.25 50.75C36.25 47.8822 37.1004 45.0787 38.6937 42.6942C40.287 40.3097 42.5516 38.4512 45.2011 37.3537C47.8506 36.2563 50.7661 35.9691 53.5788 36.5286C56.3915 37.0881 58.9752 38.4691 61.003 40.497C63.0309 42.5248 64.4119 45.1085 64.9714 47.9212C65.5309 50.7339 65.2437 53.6494 64.1463 56.2989C63.0488 58.9484 61.1903 61.213 58.8058 62.8063C56.4213 64.3996 53.6178 65.25 50.75 65.25C46.9058 65.2452 43.2205 63.716 40.5023 60.9977C37.784 58.2795 36.2548 54.5942 36.25 50.75ZM79.75 79.75H94.25V94.25H79.75V79.75Z" fill="white"/>
</svg>
