<svg width="67" height="67" viewBox="0 0 67 67" fill="none" xmlns="http://www.w3.org/2000/svg">
<path d="M33.5 8.38281C32.4013 8.38281 31.3133 8.59922 30.2982 9.01968C29.2831 9.44015 28.3608 10.0564 27.5839 10.8333C26.807 11.6103 26.1907 12.5326 25.7702 13.5477C25.3498 14.5628 25.1334 15.6507 25.1334 16.7494C25.1334 17.8482 25.3498 18.9361 25.7702 19.9512C26.1907 20.9663 26.807 21.8886 27.5839 22.6655C28.3608 23.4424 29.2831 24.0587 30.2982 24.4792C31.3133 24.8997 32.4013 25.1161 33.5 25.1161C35.719 25.1161 37.847 24.2346 39.4161 22.6655C40.9851 21.0965 41.8666 18.9684 41.8666 16.7494C41.8666 14.5305 40.9851 12.4024 39.4161 10.8333C37.847 9.26429 35.719 8.38281 33.5 8.38281ZM52.3438 12.5619C50.6779 12.5619 49.0802 13.2237 47.9022 14.4017C46.7243 15.5796 46.0625 17.1773 46.0625 18.8432C46.0625 20.5091 46.7243 22.1067 47.9022 23.2847C49.0802 24.4627 50.6779 25.1244 52.3438 25.1244C54.0096 25.1244 55.6073 24.4627 56.7853 23.2847C57.9632 22.1067 58.625 20.5091 58.625 18.8432C58.625 17.1773 57.9632 15.5796 56.7853 14.4017C55.6073 13.2237 54.0096 12.5619 52.3438 12.5619ZM14.6563 12.5619C12.9904 12.5619 11.3927 13.2237 10.2147 14.4017C9.03677 15.5796 8.375 17.1773 8.375 18.8432C8.375 20.5091 9.03677 22.1067 10.2147 23.2847C11.3927 24.4627 12.9904 25.1244 14.6563 25.1244C16.3221 25.1244 17.9198 24.4627 19.0978 23.2847C20.2757 22.1067 20.9375 20.5091 20.9375 18.8432C20.9375 17.1773 20.2757 15.5796 19.0978 14.4017C17.9198 13.2237 16.3221 12.5619 14.6563 12.5619ZM20.9375 33.4701C20.9452 32.3646 21.3898 31.307 22.1743 30.528C22.9588 29.7491 24.0195 29.3119 25.125 29.3119H41.875C42.9856 29.3119 44.0507 29.7531 44.836 30.5384C45.6213 31.3237 46.0625 32.3888 46.0625 33.4994V46.0619C46.0622 47.3798 45.8559 48.6896 45.4511 49.9438C44.5239 52.7858 42.6138 55.2042 40.064 56.7648C37.5141 58.3253 34.4914 58.9257 31.5387 58.4581C28.586 57.9905 25.8967 56.4856 23.9537 54.2136C22.0107 51.9417 20.9413 49.0514 20.9375 46.0619V33.4701ZM16.75 33.4994C16.75 31.971 17.1562 30.5431 17.8723 29.3119H8.375C7.26441 29.3119 6.1993 29.7531 5.41399 30.5384C4.62868 31.3237 4.1875 32.3888 4.1875 33.4994V43.9682C4.18693 45.6822 4.6072 47.37 5.41139 48.8836C6.21559 50.3972 7.37911 51.6902 8.79979 52.649C10.2205 53.6079 11.8548 54.2032 13.5594 54.3828C15.2639 54.5624 16.9864 54.3207 18.5758 53.679C17.3705 51.3196 16.7446 48.7071 16.75 46.0578V33.4994ZM50.25 33.4994V46.0619C50.25 48.8048 49.5926 51.3926 48.4243 53.679C50.0136 54.3207 51.7361 54.5624 53.4406 54.3828C55.1452 54.2032 56.7795 53.6079 58.2002 52.649C59.6209 51.6902 60.7844 50.3972 61.5886 48.8836C62.3928 47.37 62.8131 45.6822 62.8125 43.9682V33.4994C62.8125 32.3888 62.3713 31.3237 61.586 30.5384C60.8007 29.7531 59.7356 29.3119 58.625 29.3119H49.1278C49.8396 30.5431 50.25 31.971 50.25 33.4994Z" fill="white"/>
</svg>
