<svg width="108" height="108" viewBox="0 0 108 108" fill="none" xmlns="http://www.w3.org/2000/svg">
<path fill-rule="evenodd" clip-rule="evenodd" d="M0 0V83.9998H67.1608V77.9998H5.99998V5.99998H86.9997V12.36H92.9997V0H0ZM92.9997 29.9999C92.9997 31.5912 92.3676 33.1173 91.2424 34.2425C90.1172 35.3678 88.591 35.9999 86.9997 35.9999C85.4085 35.9999 83.8823 35.3678 82.7571 34.2425C81.6319 33.1173 80.9998 31.5912 80.9998 29.9999C80.9998 28.4086 81.6319 26.8825 82.7571 25.7573C83.8823 24.6321 85.4085 23.9999 86.9997 23.9999C88.591 23.9999 90.1172 24.6321 91.2424 25.7573C92.3676 26.8825 92.9997 28.4086 92.9997 29.9999ZM98.9997 29.9999C98.9997 33.1825 97.7354 36.2347 95.485 38.4852C93.2346 40.7356 90.1823 41.9999 86.9997 41.9999C83.8172 41.9999 80.7649 40.7356 78.5145 38.4852C76.2641 36.2347 74.9998 33.1825 74.9998 29.9999C74.9998 26.8173 76.2641 23.7651 78.5145 21.5147C80.7649 19.2642 83.8172 18 86.9997 18C90.1823 18 93.2346 19.2642 95.485 21.5147C97.7354 23.7651 98.9997 26.8173 98.9997 29.9999Z" fill="white"/>
<path fill-rule="evenodd" clip-rule="evenodd" d="M72.2787 47.49C73.9518 45.8928 76.1756 45.0012 78.4887 45H90.7346C95.1266 45 99.2156 46.494 102.366 49.47C105.396 52.332 106.974 56.001 107.619 59.478C108.633 64.9439 107.583 70.9169 105 76.2119V100.5C105 102.382 104.292 104.195 103.017 105.58C101.743 106.965 99.9939 107.819 98.1182 107.975C96.2426 108.13 94.3771 107.574 92.8921 106.418C91.407 105.262 90.411 103.589 90.1016 101.733L88.4997 92.1209L86.8977 101.733C86.5883 103.589 85.5923 105.262 84.1073 106.418C82.6222 107.574 80.7567 108.13 78.8811 107.975C77.0054 107.819 75.2567 106.965 73.9819 105.58C72.7072 104.195 71.9996 102.382 71.9997 100.5V72.2789C70.6316 73.0689 69.0796 73.4849 67.4997 73.4849H52.1938C49.8068 73.4849 47.5176 72.5367 45.8298 70.8489C44.142 69.1611 43.1938 66.8719 43.1938 64.4849C43.1938 62.098 44.142 59.8088 45.8298 58.121C47.5176 56.4332 49.8068 55.485 52.1938 55.485H63.8937L72.2787 47.487V47.49ZM77.9997 82.4249V100.5C78.0007 100.876 78.1427 101.237 78.3976 101.513C78.6525 101.789 79.0018 101.96 79.3762 101.991C79.7507 102.022 80.1231 101.911 80.4199 101.68C80.7166 101.45 80.916 101.116 80.9787 100.746L84.1077 81.9779C84.2241 81.2774 84.5853 80.6409 85.1269 80.1817C85.6686 79.7225 86.3555 79.4702 87.0657 79.4699H89.9336C90.6438 79.4702 91.3307 79.7225 91.8724 80.1817C92.414 80.6409 92.7752 81.2774 92.8916 81.9779L96.0206 100.746C96.0833 101.116 96.2827 101.45 96.5794 101.68C96.8762 101.911 97.2486 102.022 97.6231 101.991C97.9975 101.96 98.3468 101.789 98.6017 101.513C98.8566 101.237 98.9986 100.876 98.9996 100.5V75.4979C98.9995 75.0177 99.1148 74.5444 99.3356 74.1179C101.652 69.6479 102.495 64.7489 101.721 60.573C101.25 58.035 100.149 55.629 98.2466 53.832C96.3056 51.999 93.7316 51 90.7346 51H78.4917C77.7207 51 76.9767 51.297 76.4187 51.828L67.1667 60.654C66.6092 61.1867 65.8679 61.4843 65.0967 61.485H52.1938C51.3981 61.485 50.6351 61.801 50.0724 62.3636C49.5098 62.9262 49.1938 63.6893 49.1938 64.4849C49.1938 65.2806 49.5098 66.0437 50.0724 66.6063C50.6351 67.1689 51.3981 67.4849 52.1938 67.4849H67.4997C68.2709 67.4843 69.0122 67.1867 69.5697 66.6539L72.9297 63.4499C73.3548 63.0447 73.8895 62.7732 74.4674 62.669C75.0454 62.5648 75.6412 62.6325 76.181 62.8638C76.7209 63.095 77.181 63.4797 77.5042 63.97C77.8275 64.4603 77.9998 65.0347 77.9997 65.6219V82.4279V82.4249Z" fill="white"/>
</svg>
