<svg width="197" height="223" viewBox="0 0 197 223" fill="none" xmlns="http://www.w3.org/2000/svg">
<path d="M71.8367 97.4559C73.6516 95.6371 75.8079 94.1948 78.1817 93.2116C80.5556 92.2285 83.1003 91.7239 85.6697 91.7269H150.92C156.111 91.727 161.09 93.7893 164.761 97.4603C168.432 101.131 170.495 106.11 170.495 111.302V163.502C170.495 168.694 168.432 173.673 164.761 177.344C161.09 181.015 156.111 183.077 150.92 183.077H106.824L99.5157 175.769C103.297 167.866 105.255 159.214 105.245 150.452V170.027H150.92C152.65 170.027 154.31 169.339 155.534 168.116C156.757 166.892 157.445 165.232 157.445 163.502V143.927H105.245V150.452C105.267 137.012 100.658 123.974 92.1947 113.533V104.777H85.6697C85.0289 104.775 84.3913 104.867 83.7774 105.051C80.1176 102.048 76.1083 99.4973 71.8367 97.4559ZM157.445 111.302C157.445 109.571 156.757 107.912 155.534 106.688C154.31 105.464 152.65 104.777 150.92 104.777H105.245V130.877H157.445V111.302ZM53.0447 92.0793C48.7079 91.5999 44.3315 91.5999 39.9947 92.0793V26.477C39.9947 19.5548 42.7445 12.9162 47.6392 8.02146C52.5339 3.12677 59.1725 0.376953 66.0947 0.376953H125.942C131.132 0.381522 136.107 2.44688 139.775 6.11895L190.866 57.1967C194.533 60.8663 196.594 65.8417 196.595 71.0296V183.077C196.595 189.999 193.845 196.638 188.95 201.532C184.055 206.427 177.417 209.177 170.495 209.177H130.235C129.261 206.426 127.683 203.929 125.616 201.869L119.874 196.127H170.495C173.956 196.127 177.275 194.752 179.722 192.305C182.17 189.857 183.545 186.538 183.545 183.077V78.6769H137.87C132.678 78.6769 127.699 76.6146 124.028 72.9436C120.357 69.2725 118.295 64.2936 118.295 59.102V13.427H66.0947C62.6336 13.427 59.3143 14.8019 56.8669 17.2492C54.4196 19.6966 53.0447 23.0159 53.0447 26.477V92.0793ZM137.87 65.627H180.843L131.345 16.1283V59.102C131.345 60.8325 132.032 62.4921 133.256 63.7158C134.479 64.9395 136.139 65.627 137.87 65.627ZM83.0988 177.805C90.0142 168.557 93.17 157.033 91.9311 145.552C90.6921 134.071 85.1505 123.485 76.4214 115.925C67.6923 108.365 56.4237 104.393 44.8834 104.806C33.3432 105.22 22.388 109.989 14.2226 118.155C6.05718 126.32 1.28769 137.275 0.87401 148.816C0.46033 160.356 4.43316 171.625 11.993 180.354C19.5528 189.083 30.1384 194.624 41.6193 195.863C53.1003 197.102 64.6245 193.946 73.8725 187.031L107.15 220.309C107.756 220.915 108.475 221.397 109.267 221.725C110.059 222.054 110.908 222.223 111.765 222.224C112.622 222.225 113.471 222.056 114.264 221.729C115.056 221.401 115.776 220.921 116.383 220.315C116.99 219.709 117.471 218.99 117.8 218.198C118.128 217.406 118.298 216.557 118.298 215.7C118.299 214.843 118.131 213.994 117.803 213.201C117.476 212.409 116.995 211.689 116.389 211.082L83.1119 177.805H83.0988ZM79.1447 150.452C79.1447 159.105 75.7074 167.403 69.589 173.521C63.4706 179.64 55.1723 183.077 46.5197 183.077C37.867 183.077 29.5687 179.64 23.4503 173.521C17.3319 167.403 13.8947 159.105 13.8947 150.452C13.8947 141.799 17.3319 133.501 23.4503 127.383C29.5687 121.264 37.867 117.827 46.5197 117.827C55.1723 117.827 63.4706 121.264 69.589 127.383C75.7074 133.501 79.1447 141.799 79.1447 150.452Z" fill="#339F94"/>
</svg>
