<svg width="65" height="65" viewBox="0 0 65 65" fill="none" xmlns="http://www.w3.org/2000/svg">
<circle cx="32.567" cy="32.5201" r="31.6002" fill="#339F94"/>
<path d="M26.3369 31.5378C26.5803 31.2939 26.8694 31.1005 27.1878 30.9686C27.5061 30.8368 27.8473 30.7691 28.1919 30.7695H36.9419C37.6381 30.7695 38.3058 31.0461 38.798 31.5384C39.2903 32.0307 39.5669 32.6983 39.5669 33.3945V40.3945C39.5669 41.0907 39.2903 41.7584 38.798 42.2507C38.3058 42.743 37.6381 43.0195 36.9419 43.0195H31.0286L30.0486 42.0395C30.5558 40.9797 30.8183 39.8195 30.8169 38.6445V41.2695H36.9419C37.174 41.2695 37.3965 41.1773 37.5606 41.0133C37.7247 40.8492 37.8169 40.6266 37.8169 40.3945V37.7695H30.8169V38.6445C30.8198 36.8422 30.2018 35.0939 29.0669 33.6938V32.5195H28.1919C28.106 32.5193 28.0205 32.5316 27.9381 32.5563C27.4474 32.1535 26.9097 31.8115 26.3369 31.5378ZM37.8169 33.3945C37.8169 33.1625 37.7247 32.9399 37.5606 32.7758C37.3965 32.6117 37.174 32.5195 36.9419 32.5195H30.8169V36.0195H37.8169V33.3945ZM23.8169 30.8168C23.2353 30.7525 22.6485 30.7525 22.0669 30.8168V22.0195C22.0669 21.0913 22.4356 20.201 23.092 19.5447C23.7484 18.8883 24.6386 18.5195 25.5669 18.5195H33.5924C34.2884 18.5201 34.9556 18.7971 35.4474 19.2895L42.2986 26.139C42.7904 26.6311 43.0667 27.2983 43.0669 27.994V43.0195C43.0669 43.9478 42.6981 44.838 42.0418 45.4944C41.3854 46.1508 40.4952 46.5195 39.5669 46.5195H34.1681C34.0375 46.1506 33.8258 45.8158 33.5486 45.5395L32.7786 44.7695H39.5669C40.031 44.7695 40.4761 44.5852 40.8043 44.257C41.1325 43.9288 41.3169 43.4837 41.3169 43.0195V29.0195H35.1919C34.4957 29.0195 33.828 28.743 33.3357 28.2507C32.8435 27.7584 32.5669 27.0907 32.5669 26.3945V20.2695H25.5669C25.1028 20.2695 24.6576 20.4539 24.3295 20.7821C24.0013 21.1103 23.8169 21.5554 23.8169 22.0195V30.8168ZM35.1919 27.2695H40.9546L34.3169 20.6318V26.3945C34.3169 26.6266 34.4091 26.8492 34.5732 27.0133C34.7373 27.1773 34.9598 27.2695 35.1919 27.2695ZM27.8471 42.3125C28.7745 41.0724 29.1977 39.527 29.0315 37.9874C28.8654 36.4478 28.1223 35.0283 26.9517 34.0145C25.7811 33.0008 24.27 32.468 22.7225 32.5235C21.1749 32.5789 19.7058 33.2185 18.6109 34.3135C17.5159 35.4085 16.8763 36.8776 16.8208 38.4251C16.7654 39.9727 17.2981 41.4838 18.3119 42.6543C19.3256 43.8249 20.7452 44.568 22.2848 44.7342C23.8244 44.9003 25.3697 44.4771 26.6099 43.5498L31.0724 48.0123C31.1536 48.0936 31.2501 48.1582 31.3563 48.2023C31.4625 48.2463 31.5763 48.2691 31.6913 48.2691C31.8062 48.2692 31.9201 48.2467 32.0264 48.2027C32.1326 48.1588 32.2292 48.0944 32.3105 48.0132C32.3919 47.9319 32.4564 47.8355 32.5005 47.7293C32.5446 47.6231 32.5673 47.5092 32.5674 47.3943C32.5675 47.2793 32.5449 47.1654 32.501 47.0592C32.4571 46.9529 32.3926 46.8564 32.3114 46.775L27.8489 42.3125H27.8471ZM27.3169 38.6445C27.3169 39.8049 26.856 40.9177 26.0355 41.7381C25.215 42.5586 24.1022 43.0195 22.9419 43.0195C21.7816 43.0195 20.6688 42.5586 19.8483 41.7381C19.0278 40.9177 18.5669 39.8049 18.5669 38.6445C18.5669 37.4842 19.0278 36.3714 19.8483 35.5509C20.6688 34.7305 21.7816 34.2695 22.9419 34.2695C24.1022 34.2695 25.215 34.7305 26.0355 35.5509C26.856 36.3714 27.3169 37.4842 27.3169 38.6445Z" fill="white"/>
</svg>
