<svg width="176" height="176" viewBox="0 0 176 176" fill="none" xmlns="http://www.w3.org/2000/svg">
<path d="M87.6768 15.7422C57.5221 15.7422 32.9893 40.275 32.9893 70.4297C32.9893 100.584 57.5221 125.117 87.6768 125.117C117.831 125.117 142.364 100.584 142.364 70.4297C142.364 40.275 117.831 15.7422 87.6768 15.7422ZM87.6768 26.6797C111.799 26.6797 131.427 46.307 131.427 70.4297C131.427 94.5523 111.799 114.18 87.6768 114.18C63.5541 114.18 43.9268 94.5523 43.9268 70.4297C43.9268 46.307 63.5541 26.6797 87.6768 26.6797ZM82.208 37.6172V44.125C78.2648 45.5587 74.9996 48.4142 73.0533 52.1313C71.3582 55.4037 70.8481 59.1621 71.6096 62.768C72.2825 65.9052 73.8429 68.783 76.1049 71.0586C77.5978 72.5516 79.3752 73.7602 81.333 74.5969C83.2908 75.4336 85.4346 75.8984 87.6768 75.8984C88.4533 75.8984 89.1861 76.0461 89.8424 76.3141C90.492 76.5784 91.0821 76.97 91.578 77.4659C92.074 77.9618 92.4656 78.5519 92.7299 79.2016C92.9978 79.8578 93.1455 80.5906 93.1455 81.3672C93.1693 82.4444 92.8665 83.5037 92.277 84.4056C91.6874 85.3075 90.8387 86.0099 89.8424 86.4203C89.1861 86.6883 88.4533 86.8359 87.6768 86.8359C86.8947 86.8359 86.1674 86.6883 85.5111 86.4203C84.8621 86.1552 84.2726 85.7628 83.7775 85.2664C83.2707 84.7528 82.8709 84.1437 82.6015 83.4743C82.3321 82.8049 82.1983 82.0887 82.208 81.3672H71.2705C71.2711 85.6222 72.9561 89.7039 75.9572 92.7203C77.7135 94.5114 79.8496 95.8851 82.208 96.7398V103.242H93.1455V96.7344C95.903 95.7459 98.3485 94.0428 100.232 91.7992C102.115 89.5555 103.369 86.8519 103.864 83.9648C104.54 79.8639 103.603 75.6605 101.25 72.2344C100.063 70.4873 98.5567 68.9806 96.8096 67.7937C95.0386 66.592 93.0514 65.7452 90.958 65.3C89.8788 65.0748 88.7792 64.9612 87.6768 64.9609C86.8947 64.9609 86.1674 64.8133 85.5111 64.5453C84.8615 64.281 84.2714 63.8894 83.7755 63.3935C83.2796 62.8976 82.8879 62.3074 82.6236 61.6578C82.3457 60.9698 82.2045 60.2342 82.208 59.4922C82.208 58.7102 82.3557 57.9828 82.6236 57.3266C82.8879 56.6769 83.2796 56.0868 83.7755 55.5909C84.2714 55.095 84.8615 54.7034 85.5111 54.4391C86.1674 54.1711 86.9002 54.0234 87.6768 54.0234C90.7939 54.0234 93.1455 56.375 93.1455 59.4922H104.083C104.084 57.7754 103.811 56.0695 103.274 54.4391C102.469 52.0695 101.14 49.9118 99.3867 48.1262C97.6332 46.3406 95.5 44.973 93.1455 44.125V37.6172H82.208ZM11.1143 114.18V157.93H22.0518V125.117H51.4736C46.8364 122.016 42.6101 118.341 38.8955 114.18H11.1143ZM136.458 114.18C132.743 118.341 128.517 122.016 123.88 125.117H153.302V157.93H164.239V114.18H136.458ZM32.9893 136.055V146.992H142.364V136.055H32.9893Z" fill="white"/>
</svg>
