<svg width="72" height="111" viewBox="0 0 72 111" fill="none" xmlns="http://www.w3.org/2000/svg">
<path fill-rule="evenodd" clip-rule="evenodd" d="M29.0687 24.75C32.3507 24.75 35.4984 23.4462 37.8191 21.1254C40.1399 18.8047 41.4437 15.6571 41.4437 12.375C41.4437 9.09295 40.1399 5.94532 37.8191 3.62455C35.4984 1.30379 32.3507 0 29.0687 0C25.7866 0 22.639 1.30379 20.3183 3.62455C17.9975 5.94532 16.6937 9.09295 16.6937 12.375C16.6937 15.6571 17.9975 18.8047 20.3183 21.1254C22.639 23.4462 25.7866 24.75 29.0687 24.75ZM29.0687 19.25C30.8921 19.25 32.6407 18.5257 33.9301 17.2364C35.2194 15.947 35.9437 14.1984 35.9437 12.375C35.9437 10.5516 35.2194 8.80295 33.9301 7.51364C32.6407 6.22433 30.8921 5.5 29.0687 5.5C27.2453 5.5 25.4967 6.22433 24.2073 7.51364C22.918 8.80295 22.1937 10.5516 22.1937 12.375C22.1937 14.1984 22.918 15.947 24.2073 17.2364C25.4967 18.5257 27.2453 19.25 29.0687 19.25ZM2.22319 35.5987C5.72944 30.8165 11.6282 30.25 15.3187 30.25H42.8187C53.0872 30.25 59.932 34.6555 64.1587 40.205C67.4807 44.5583 68.9905 49.4725 69.6587 51.645L69.6752 51.6973C69.7715 52.0107 69.8402 52.2308 69.8952 52.3903C70.4328 54.0029 70.4592 55.7422 69.9709 57.3705C69.4826 58.9987 68.5035 60.4365 67.1672 61.4872C68.4778 62.194 69.5726 63.2423 70.3357 64.521C71.0987 65.7997 71.5015 67.261 71.5012 68.75V107.25C71.5012 107.979 71.2115 108.679 70.6958 109.195C70.18 109.71 69.4806 110 68.7512 110C68.0219 110 67.3224 109.71 66.8067 109.195C66.2909 108.679 66.0012 107.979 66.0012 107.25V68.75C66.0012 68.0207 65.7115 67.3212 65.1958 66.8055C64.68 66.2897 63.9806 66 63.2512 66C62.5219 66 61.8224 66.2897 61.3067 66.8055C60.7909 67.3212 60.5012 68.0207 60.5012 68.75V70.5843C60.5012 71.3136 60.2115 72.0131 59.6958 72.5288C59.18 73.0445 58.4806 73.3343 57.7512 73.3343C57.0219 73.3343 56.3224 73.0445 55.8067 72.5288C55.2909 72.0131 55.0012 71.3136 55.0012 70.5843V68.75C55.0012 66.1182 56.2332 63.7725 58.1555 62.26C56.306 61.266 54.9069 59.6022 54.245 57.6097C54.1185 57.233 53.9975 56.8507 53.8792 56.4795L53.915 56.573L53.849 56.3833C53.123 54.1035 52.4492 52.0548 51.0385 50.204C50.3222 49.2306 49.3929 48.4339 48.3215 47.8748V102.165C48.3239 104.285 47.5103 106.325 46.0493 107.861C44.5884 109.397 42.5921 110.311 40.4748 110.415C38.3574 110.519 36.2814 109.803 34.6774 108.417C33.0734 107.031 32.0645 105.081 31.8599 102.971L29.8524 82.5H28.2904L26.2829 102.971C26.0784 105.081 25.0695 107.031 23.4655 108.417C21.8615 109.803 19.7855 110.519 17.6681 110.415C15.5508 110.311 13.5545 109.397 12.0936 107.861C10.6326 106.325 9.81895 104.285 9.82145 102.165V62.15C9.16145 61.303 8.52895 60.4725 7.9267 59.6612C5.35544 56.2045 2.97944 52.646 1.54944 49.3102C0.355943 46.5217 -1.54156 40.7275 2.22319 35.596V35.5987ZM15.3187 35.75C11.7849 35.75 8.45195 36.4018 6.6562 38.8493C4.77794 41.4067 5.50669 44.5885 6.60119 47.146C7.76719 49.863 9.8187 52.998 12.3377 56.3833C13.0829 57.387 13.8832 58.4292 14.7302 59.5072L14.8649 59.6777L19.5262 54.791C17.9782 52.6441 16.3405 50.5632 14.6174 48.554C14.139 48.0033 13.8989 47.2852 13.9499 46.5575C14.001 45.8298 14.339 45.1522 14.8897 44.6738C15.4403 44.1953 16.1585 43.9552 16.8862 44.0062C17.6139 44.0573 18.2915 44.3953 18.7699 44.946C20.3826 46.82 21.921 48.7566 23.3817 50.7513L37.7092 35.75H15.3242H15.3187ZM45.1425 35.8435C45.0452 35.9981 44.9328 36.1428 44.807 36.2752L26.6762 55.2723C28.0237 57.1203 29.3767 58.9408 30.8782 60.775C32.264 62.4685 32.9202 64.6432 32.7026 66.8206C32.4849 68.998 31.4112 70.9997 29.7177 72.3855C28.0242 73.7713 25.8495 74.4275 23.6721 74.2099C21.4947 73.9922 19.493 72.9185 18.1072 71.225C17.2272 70.147 16.2922 69.0717 15.3214 67.9717V102.163C15.3234 102.867 15.596 103.545 16.0829 104.054C16.5698 104.564 17.2338 104.867 17.9379 104.901C18.6419 104.936 19.3322 104.698 19.8663 104.238C20.4003 103.778 20.7373 103.131 20.8077 102.429L23.3047 77H34.8382L37.3325 102.432C37.3956 103.139 37.7299 103.795 38.2654 104.261C38.8008 104.727 39.4958 104.968 40.205 104.934C40.9142 104.9 41.5826 104.592 42.0703 104.076C42.558 103.56 42.8271 102.875 42.8214 102.165V41.0025L45.9702 41.4673C50.7607 42.1712 53.5877 44.4702 55.4137 46.8682C57.4432 49.5302 58.3562 52.4068 59.052 54.5958L59.0905 54.714C59.2197 55.1238 59.338 55.5033 59.4617 55.869C59.6996 56.5518 60.1969 57.1134 60.8458 57.4322C61.4947 57.7511 62.2431 57.8015 62.929 57.5727C63.6149 57.3438 64.183 56.854 64.5104 56.2094C64.8378 55.5647 64.8982 54.8171 64.6785 54.1283C64.5936 53.8641 64.5111 53.5992 64.431 53.3335L64.4227 53.3115C63.7627 51.1748 62.484 47.0718 59.789 43.5325C56.8547 39.6825 52.265 36.4238 45.1452 35.8408L45.1425 35.8435ZM22.8124 59.3148L18.7589 63.5608C19.9882 64.944 21.2147 66.341 22.3614 67.7407C22.588 68.0266 22.8691 68.2645 23.1884 68.4406C23.5077 68.6167 23.8589 68.7276 24.2215 68.7667C24.584 68.8059 24.9508 68.7725 25.3003 68.6686C25.6499 68.5647 25.9753 68.3923 26.2576 68.1614C26.5399 67.9305 26.7734 67.6458 26.9447 67.3238C27.1159 67.0018 27.2214 66.649 27.255 66.2859C27.2885 65.9227 27.2496 65.5565 27.1403 65.2086C27.031 64.8607 26.8536 64.538 26.6185 64.2593C25.3071 62.6441 24.0389 60.9944 22.8152 59.312L22.8124 59.3148Z" fill="white"/>
</svg>
