<svg width="21" height="21" viewBox="0 0 21 21" fill="none" xmlns="http://www.w3.org/2000/svg">
<mask id="mask0_95_1612" style="mask-type:alpha" maskUnits="userSpaceOnUse" x="0" y="0" width="21" height="21">
<g clip-path="url(#clip0_95_1612)">
<path d="M20.8047 4.54484C20.0609 4.87109 19.2684 5.08734 18.4422 5.19234C19.2922 4.68484 19.9409 3.88734 20.2459 2.92609C19.4534 3.39859 18.5784 3.73234 17.6459 3.91859C16.8934 3.11734 15.8209 2.62109 14.6509 2.62109C12.3809 2.62109 10.5534 4.46359 10.5534 6.72234C10.5534 7.04734 10.5809 7.35984 10.6484 7.65734C7.23969 7.49109 4.22344 5.85734 2.19719 3.36859C1.84344 3.98234 1.63594 4.68484 1.63594 5.44109C1.63594 6.86109 2.36719 8.11984 3.45719 8.84859C2.79844 8.83609 2.15219 8.64484 1.60469 8.34359C1.60469 8.35609 1.60469 8.37234 1.60469 8.38859C1.60469 10.3811 3.02594 12.0361 4.88969 12.4173C4.55594 12.5086 4.19219 12.5523 3.81469 12.5523C3.55219 12.5523 3.28719 12.5373 3.03844 12.4823C3.56969 14.1061 5.07719 15.2998 6.86969 15.3386C5.47469 16.4298 3.70344 17.0873 1.78594 17.0873C1.44969 17.0873 1.12719 17.0723 0.804688 17.0311C2.62094 18.2023 4.77344 18.8711 7.09469 18.8711C14.6397 18.8711 18.7647 12.6211 18.7647 7.20359C18.7647 7.02234 18.7584 6.84734 18.7497 6.67359C19.5634 6.09609 20.2472 5.37484 20.8047 4.54484Z" fill="black"/>
</g>
</mask>
<g mask="url(#mask0_95_1612)">
<rect x="-1.19531" y="-2.25391" width="22" height="23" fill="white"/>
</g>
<defs>
<clipPath id="clip0_95_1612">
<rect width="20" height="20" fill="white" transform="translate(0.804688 0.746094)"/>
</clipPath>
</defs>
</svg>
