<svg width="50" height="49" viewBox="0 0 50 49" fill="none" xmlns="http://www.w3.org/2000/svg">
<circle cx="24.9994" cy="24.103" r="24.0405" fill="#F15C4E"/>
<path d="M26.0004 11.4004C24.6478 11.4004 23.3506 11.9377 22.3941 12.8941C21.4377 13.8506 20.9004 15.1478 20.9004 16.5004C20.9004 20.2863 22.2417 25.3472 22.9829 27.8649C23.1766 28.5136 23.5753 29.0821 24.1193 29.4852C24.6634 29.8882 25.3234 30.1041 26.0004 30.1004C27.3774 30.1004 28.6184 29.2198 29.0179 27.8734C29.7608 25.3625 31.1004 20.3254 31.1004 16.5004C31.1004 15.1478 30.5631 13.8506 29.6066 12.8941C28.6502 11.9377 27.353 11.4004 26.0004 11.4004ZM26.0004 31.8004C25.0987 31.8004 24.2339 32.1586 23.5962 32.7962C22.9586 33.4339 22.6004 34.2987 22.6004 35.2004C22.6004 36.1021 22.9586 36.9669 23.5962 37.6046C24.2339 38.2422 25.0987 38.6004 26.0004 38.6004C26.9021 38.6004 27.7669 38.2422 28.4046 37.6046C29.0422 36.9669 29.4004 36.1021 29.4004 35.2004C29.4004 34.2987 29.0422 33.4339 28.4046 32.7962C27.7669 32.1586 26.9021 31.8004 26.0004 31.8004Z" fill="white"/>
</svg>
