<svg width="65" height="65" viewBox="0 0 65 65" fill="none" xmlns="http://www.w3.org/2000/svg">
<path d="M32.5 0C28.25 0 25 3.25 25 7.5V22.5C25 26.75 28.25 30 32.5 30H47.5L57.5 40V30C61.75 30 65 26.75 65 22.5V7.5C65 3.25 61.75 0 57.5 0H32.5ZM42.97 7.5H47.265L51.485 22.5H47.735L46.7175 18.75H42.9675L42.0325 22.5H38.75L42.97 7.5ZM45 10C44.75 11 44.47 12.22 44.2175 12.97L43.5175 16.25H46.485L45.78 12.9675C45.2825 12.22 45 11 45 10ZM7.5 25C3.25 25 0 28.25 0 32.5V47.5C0 51.75 3.25 55 7.5 55V65L17.5 55H32.5C36.75 55 40 51.75 40 47.5V32.5H32.5C27.75 32.5 23.985 29.25 22.735 25H7.5ZM18.985 32.265C23.235 32.265 25.235 35.765 25.235 39.765C25.235 43.265 24.0325 45.485 22.0325 46.485C23.0325 46.985 24.2175 47.25 25.4675 47.5L24.5325 50C22.7825 49.5 20.9675 48.72 19.2175 47.9675C18.9675 47.7175 18.53 47.735 18.28 47.735C15.28 47.485 12.5 45 12.5 40C12.5 35.75 14.985 32.265 18.985 32.265ZM18.985 35C16.985 35 16.015 37.25 16.015 40C16.015 43 16.985 45 18.985 45C20.985 45 22.03 42.75 22.03 40C22.03 37.25 20.985 35 18.985 35Z" fill="white"/>
</svg>
